<svg width="61" xmlns="http://www.w3.org/2000/svg" height="46" viewBox="-2 -2 61 46" style="-webkit-print-color-adjust:exact" fill="none">
    <g class="feather feather-users" style="fill:#000">
        <path fill="none" d="M29.75 36.75v-3.5a7 7 0 0 0-7-7h-14a7 7 0 0 0-7 7v3.5" style="fill:none" class="fills"/>
        <g class="strokes">
            <path stroke-linecap="round" stroke-linejoin="round" d="M29.75 36.75v-3.5a7 7 0 0 0-7-7h-14a7 7 0 0 0-7 7v3.5" style="fill:none;stroke-width:4;stroke:#000;stroke-opacity:1" class="stroke-shape"/>
        </g>
        <circle cy="12.25" style="fill:none" fill="none" cx="15.75" r="7" class="fills"/>
        <g class="strokes">
            <circle stroke-linecap="round" stroke-linejoin="round" cx="15.75" cy="12.25" style="fill:none;stroke-width:4;stroke:#000;stroke-opacity:1" r="7" class="stroke-shape"/>
        </g>
        <path fill="none" d="M40.25 36.75v-3.5A7 7 0 0 0 35 26.477" style="fill:none" class="fills"/>
        <g class="strokes">
            <path stroke-linecap="round" stroke-linejoin="round" d="M40.25 36.75v-3.5A7 7 0 0 0 35 26.477" style="fill:none;stroke-width:4;stroke:#000;stroke-opacity:1" class="stroke-shape"/>
        </g>
        <path fill="none" d="M28 5.477a7.002 7.002 0 0 1 0 13.563" style="fill:none" class="fills"/>
        <g class="strokes">
            <path stroke-linecap="round" stroke-linejoin="round" d="M28 5.477a7.002 7.002 0 0 1 0 13.563" style="fill:none;stroke-width:4;stroke:#000;stroke-opacity:1" class="stroke-shape"/>
        </g>
    </g>
    <g class="feather feather-arrow-right" style="fill:#000">
        <path fill="none" d="M38 19h14" style="fill:none" class="fills"/>
        <g class="strokes">
            <path stroke-linejoin="round" stroke-linecap="round" d="M38 19h14" style="fill:none;stroke-width:4;stroke:#000;stroke-opacity:1" class="stroke-shape"/>
        </g>
        <path fill="none" d="m45 12 7 7-7 7" style="fill:none" class="fills"/>
        <g class="strokes">
            <path stroke-linecap="round" stroke-linejoin="round" d="m45 12 7 7-7 7" style="fill:none;stroke-width:4;stroke:#000;stroke-opacity:1" class="stroke-shape"/>
        </g>
    </g>
</svg>
