<svg width="65" xmlns="http://www.w3.org/2000/svg" height="65" viewBox="-3 -3 65 65" style="-webkit-print-color-adjust:exact" fill="none">
    <g class="feather feather-settings" style="fill:#000">
        <circle cy="29.5" style="fill:none" fill="none" cx="29.5" r="7.375" class="fills"/>
        <g class="strokes">
            <circle stroke-linecap="round" stroke-linejoin="round" cx="29.5" cy="29.5" style="fill:none;stroke-width:6;stroke:#f2f2f2;stroke-opacity:1" r="7.375" class="stroke-shape"/>
        </g>
        <path fill="none" d="M47.692 36.875a4.054 4.054 0 0 0 .811 4.474l.147.148a4.914 4.914 0 0 1 0 6.957 4.916 4.916 0 0 1-6.957 0l-.147-.148a4.056 4.056 0 0 0-4.474-.811 4.057 4.057 0 0 0-2.459 3.712v.418a4.917 4.917 0 1 1-9.833 0v-.221a4.057 4.057 0 0 0-2.655-3.712 4.054 4.054 0 0 0-4.474.811l-.148.147a4.914 4.914 0 0 1-6.957 0 4.916 4.916 0 0 1 0-6.957l.148-.147a4.056 4.056 0 0 0 .811-4.474 4.057 4.057 0 0 0-3.712-2.459h-.418a4.917 4.917 0 1 1 0-9.833h.221a4.057 4.057 0 0 0 3.712-2.655 4.054 4.054 0 0 0-.811-4.474l-.147-.148a4.914 4.914 0 0 1 0-6.957 4.916 4.916 0 0 1 6.957 0l.147.148a4.056 4.056 0 0 0 4.474.811h.197a4.055 4.055 0 0 0 2.458-3.712v-.418a4.918 4.918 0 0 1 9.834 0v.221a4.055 4.055 0 0 0 2.458 3.712 4.054 4.054 0 0 0 4.474-.811l.148-.147a4.914 4.914 0 0 1 6.957 0 4.916 4.916 0 0 1 0 6.957l-.148.147a4.056 4.056 0 0 0-.811 4.474v.197a4.055 4.055 0 0 0 3.712 2.458h.418a4.918 4.918 0 0 1 0 9.834h-.221a4.055 4.055 0 0 0-3.712 2.458Z" style="fill:none" class="fills"/>
        <g class="strokes">
            <path stroke-linecap="round" stroke-linejoin="round" d="M47.692 36.875a4.054 4.054 0 0 0 .811 4.474l.147.148a4.914 4.914 0 0 1 0 6.957 4.916 4.916 0 0 1-6.957 0l-.147-.148a4.056 4.056 0 0 0-4.474-.811 4.057 4.057 0 0 0-2.459 3.712v.418a4.917 4.917 0 1 1-9.833 0v-.221a4.057 4.057 0 0 0-2.655-3.712 4.054 4.054 0 0 0-4.474.811l-.148.147a4.914 4.914 0 0 1-6.957 0 4.916 4.916 0 0 1 0-6.957l.148-.147a4.056 4.056 0 0 0 .811-4.474 4.057 4.057 0 0 0-3.712-2.459h-.418a4.917 4.917 0 1 1 0-9.833h.221a4.057 4.057 0 0 0 3.712-2.655 4.054 4.054 0 0 0-.811-4.474l-.147-.148a4.914 4.914 0 0 1 0-6.957 4.916 4.916 0 0 1 6.957 0l.147.148a4.056 4.056 0 0 0 4.474.811h.197a4.055 4.055 0 0 0 2.458-3.712v-.418a4.918 4.918 0 0 1 9.834 0v.221a4.055 4.055 0 0 0 2.458 3.712 4.054 4.054 0 0 0 4.474-.811l.148-.147a4.914 4.914 0 0 1 6.957 0 4.916 4.916 0 0 1 0 6.957l-.148.147a4.056 4.056 0 0 0-.811 4.474v.197a4.055 4.055 0 0 0 3.712 2.458h.418a4.918 4.918 0 0 1 0 9.834h-.221a4.055 4.055 0 0 0-3.712 2.458Z" style="fill:none;stroke-width:6;stroke:#f2f2f2;stroke-opacity:1" class="stroke-shape"/>
        </g>
    </g>
</svg>
