<svg width="39" xmlns="http://www.w3.org/2000/svg" height="39" viewBox="-1.5 -1.5 39 39" style="-webkit-print-color-adjust:exact" fill="none">
    <g class="feather feather-edit" style="fill:#000">
        <path fill="none" d="M16.5 6H6a3 3 0 0 0-3 3v21a3 3 0 0 0 3 3h21a3 3 0 0 0 3-3V19.5" style="fill:none" class="fills"/>
        <g class="strokes">
            <path stroke-linecap="round" stroke-linejoin="round" d="M16.5 6H6a3 3 0 0 0-3 3v21a3 3 0 0 0 3 3h21a3 3 0 0 0 3-3V19.5" style="fill:none;stroke-width:3;stroke:#000;stroke-opacity:1" class="stroke-shape"/>
        </g>
        <path fill="none" d="M27.75 3.75a3.181 3.181 0 1 1 4.5 4.5L18 22.5 12 24l1.5-6L27.75 3.75Z" style="fill:none" class="fills"/>
        <g class="strokes">
            <path stroke-linecap="round" stroke-linejoin="round" d="M27.75 3.75a3.181 3.181 0 1 1 4.5 4.5L18 22.5 12 24l1.5-6L27.75 3.75Z" style="fill:none;stroke-width:3;stroke:#000;stroke-opacity:1" class="stroke-shape"/>
        </g>
    </g>
</svg>
