<svg width="65" xmlns="http://www.w3.org/2000/svg" height="65" viewBox="-3 -3 65 65" style="-webkit-print-color-adjust:exact" fill="none">
    <g class="feather feather-users" style="fill:#000">
        <path fill="none" d="M41.792 51.625v-4.917c0-5.43-4.403-9.833-9.834-9.833H12.292c-5.431 0-9.834 4.403-9.834 9.833v4.917" style="fill:none" class="fills"/>
        <g class="strokes">
            <path stroke-linecap="round" stroke-linejoin="round" d="M41.792 51.625v-4.917c0-5.43-4.403-9.833-9.834-9.833H12.292c-5.431 0-9.834 4.403-9.834 9.833v4.917" style="fill:none;stroke-width:6;stroke:#f2f2f2;stroke-opacity:1" class="stroke-shape"/>
        </g>
        <circle cy="17.208" style="fill:none" fill="none" cx="22.125" r="9.833" class="fills"/>
        <g class="strokes">
            <circle stroke-linecap="round" stroke-linejoin="round" cx="22.125" cy="17.208" style="fill:none;stroke-width:6;stroke:#f2f2f2;stroke-opacity:1" r="9.833" class="stroke-shape"/>
        </g>
        <path fill="none" d="M56.542 51.625v-4.917a9.833 9.833 0 0 0-7.375-9.513" style="fill:none" class="fills"/>
        <g class="strokes">
            <path stroke-linecap="round" stroke-linejoin="round" d="M56.542 51.625v-4.917a9.833 9.833 0 0 0-7.375-9.513" style="fill:none;stroke-width:6;stroke:#f2f2f2;stroke-opacity:1" class="stroke-shape"/>
        </g>
        <path fill="none" d="M39.333 7.695a9.833 9.833 0 0 1 0 19.052" style="fill:none" class="fills"/>
        <g class="strokes">
            <path stroke-linecap="round" stroke-linejoin="round" d="M39.333 7.695a9.833 9.833 0 0 1 0 19.052" style="fill:none;stroke-width:6;stroke:#f2f2f2;stroke-opacity:1" class="stroke-shape"/>
        </g>
    </g>
</svg>
