<svg xmlns:xlink="http://www.w3.org/1999/xlink" width="84" xmlns="http://www.w3.org/2000/svg" height="84" id="screenshot-01041449-41e3-8053-8003-3a04b9f2cf29" viewBox="0 0 84 84" style="-webkit-print-color-adjust: exact;" fill="none" version="1.1"><g id="shape-01041449-41e3-8053-8003-3a04b9f2cf29" width="24" class="feather feather-phone" height="24" rx="0" ry="0" style="fill: rgb(0, 0, 0);"><g id="shape-01041449-41e3-8053-8003-3a04b9f3cf39"><g class="fills" id="fills-01041449-41e3-8053-8003-3a04b9f3cf39"><path fill="none" stroke-linecap="round" stroke-linejoin="round" rx="0" ry="0" d="M77.000,59.220L77.000,69.720C77.008,71.691,76.185,73.574,74.732,74.907C73.280,76.239,71.333,76.897,69.370,76.720C58.600,75.550,48.254,71.870,39.165,65.975C30.708,60.601,23.539,53.432,18.165,44.975C12.250,35.844,8.569,25.448,7.420,14.630C7.243,12.673,7.897,10.732,9.222,9.281C10.546,7.829,12.420,7.002,14.385,7.000L24.885,7.000C28.399,6.965,31.393,9.541,31.885,13.020C32.328,16.380,33.150,19.680,34.335,22.855C35.297,25.413,34.682,28.297,32.760,30.240L28.315,34.685C33.297,43.447,40.553,50.703,49.315,55.685L53.760,51.240C55.703,49.318,58.587,48.703,61.145,49.665C64.320,50.850,67.620,51.672,70.980,52.115C74.499,52.612,77.088,55.667,77.000,59.220ZZ" style="fill: rgb(151, 217, 26); fill-opacity: 1;"/></g></g></g></svg>