<svg width="44" xmlns="http://www.w3.org/2000/svg" height="44" viewBox="-2 -2 44 44" style="-webkit-print-color-adjust:exact" fill="none">
    <g class="feather feather-phone" style="fill:#000">
        <path d="M36.667 28.2v5a3.334 3.334 0 0 1-3.634 3.333 32.978 32.978 0 0 1-14.383-5.116 32.501 32.501 0 0 1-10-10 32.982 32.982 0 0 1-5.117-14.45A3.335 3.335 0 0 1 6.85 3.333h5A3.333 3.333 0 0 1 15.183 6.2a21.41 21.41 0 0 0 1.167 4.683 3.334 3.334 0 0 1-.75 3.517l-2.117 2.117a26.68 26.68 0 0 0 10 10L25.6 24.4a3.334 3.334 0 0 1 3.517-.75 21.41 21.41 0 0 0 4.683 1.167 3.333 3.333 0 0 1 2.867 3.383z" style="fill:none" class="fills"/>
        <g class="strokes">
            <path d="M36.667 28.2v5a3.334 3.334 0 0 1-3.634 3.333 32.978 32.978 0 0 1-14.383-5.116 32.501 32.501 0 0 1-10-10 32.982 32.982 0 0 1-5.117-14.45A3.335 3.335 0 0 1 6.85 3.333h5A3.333 3.333 0 0 1 15.183 6.2a21.41 21.41 0 0 0 1.167 4.683 3.334 3.334 0 0 1-.75 3.517l-2.117 2.117a26.68 26.68 0 0 0 10 10L25.6 24.4a3.334 3.334 0 0 1 3.517-.75 21.41 21.41 0 0 0 4.683 1.167 3.333 3.333 0 0 1 2.867 3.383z" style="fill:none;stroke-width:4;stroke:#686666;stroke-opacity:1" class="stroke-shape"/>
        </g>
    </g>
</svg>
