<svg xmlns="http://www.w3.org/2000/svg" width="54.339" height="35.615" fill="none" style="-webkit-print-color-adjust:exact"><defs><clipPath id="a" class="frame-clip-def frame-clip"><rect width="54.339" height="35.615" rx="0" ry="0"/></clipPath></defs><g clip-path="url(#a)"><g class="fills"><rect width="54.339" height="35.615" class="frame-background" rx="0" ry="0"/></g><g class="frame-children"><g class="feather feather-users" style="fill:#000"><path fill="none" d="M30.002 33.589v-3.5a7 7 0 0 0-7-7h-14a7 7 0 0 0-7 7v3.5" class="fills" style="fill:none"/><g class="strokes"><path stroke-linecap="round" stroke-linejoin="round" d="M30.002 33.589v-3.5a7 7 0 0 0-7-7h-14a7 7 0 0 0-7 7v3.5" class="stroke-shape" style="fill:none;stroke-width:4;stroke:#000;stroke-opacity:1"/></g><circle cx="16.002" cy="9.089" r="7" fill="none" class="fills" style="fill:none"/><g class="strokes"><circle cx="16.002" cy="9.089" r="7" stroke-linecap="round" stroke-linejoin="round" class="stroke-shape" style="fill:none;stroke-width:4;stroke:#000;stroke-opacity:1"/></g><path fill="none" d="M40.502 33.589v-3.5a7.003 7.003 0 0 0-5.25-6.773" class="fills" style="fill:none"/><g class="strokes"><path stroke-linecap="round" stroke-linejoin="round" d="M40.502 33.589v-3.5a7.003 7.003 0 0 0-5.25-6.773" class="stroke-shape" style="fill:none;stroke-width:4;stroke:#000;stroke-opacity:1"/></g><path fill="none" d="M28.252 2.316a7 7 0 0 1 0 13.563" class="fills" style="fill:none"/><g class="strokes"><path stroke-linecap="round" stroke-linejoin="round" d="M28.252 2.316a7 7 0 0 1 0 13.563" class="stroke-shape" style="fill:none;stroke-width:4;stroke:#000;stroke-opacity:1"/></g></g><path d="M46.741 10.339v11" class="fills" style="fill:none"/><g class="strokes"><path stroke-linecap="round" stroke-linejoin="round" d="M46.741 10.339v11" class="stroke-shape" style="fill:none;stroke-width:4;stroke:#000;stroke-opacity:1"/></g><path d="M52.241 15.839h-11" class="fills" style="fill:none"/><g class="strokes"><path stroke-linecap="round" stroke-linejoin="round" d="M52.241 15.839h-11" class="stroke-shape" style="fill:none;stroke-width:4;stroke:#000;stroke-opacity:1"/></g></g></g></svg>