<svg xmlns="http://www.w3.org/2000/svg" width="54.25" height="35.5" fill="none" style="-webkit-print-color-adjust:exact" viewBox="-2 -2 54.25 35.5"><path d="M28 31.5V28a7 7 0 0 0-7-7H7a7 7 0 0 0-7 7v3.5" class="fills" style="fill:none"/><g class="strokes"><path stroke-linecap="round" stroke-linejoin="round" d="M28 31.5V28a7 7 0 0 0-7-7H7a7 7 0 0 0-7 7v3.5" class="stroke-shape" style="fill:none;stroke-width:4;stroke:#000;stroke-opacity:1"/></g><circle cx="14" cy="7" r="7" class="fills" style="fill:none"/><g class="strokes"><circle cx="14" cy="7" r="7" stroke-linecap="round" stroke-linejoin="round" class="stroke-shape" style="fill:none;stroke-width:4;stroke:#000;stroke-opacity:1"/></g><path d="M38.5 31.5V28a7 7 0 0 0-5.25-6.773" class="fills" style="fill:none"/><g class="strokes"><path stroke-linecap="round" stroke-linejoin="round" d="M38.5 31.5V28a7 7 0 0 0-5.25-6.773" class="stroke-shape" style="fill:none;stroke-width:4;stroke:#000;stroke-opacity:1"/></g><path d="M26.25.227a7.002 7.002 0 0 1 0 13.563" class="fills" style="fill:none"/><g class="strokes"><path stroke-linecap="round" stroke-linejoin="round" d="M26.25.227a7.002 7.002 0 0 1 0 13.563" class="stroke-shape" style="fill:none;stroke-width:4;stroke:#000;stroke-opacity:1"/></g><path d="M36.25 13.75h14" class="fills" style="fill:none"/><g class="strokes"><path stroke-linecap="round" stroke-linejoin="round" d="M36.25 13.75h14" class="stroke-shape" style="fill:none;stroke-width:4;stroke:#000;stroke-opacity:1"/></g><path d="m43.25 6.75 7 7-7 7" class="fills" style="fill:none"/><g class="strokes"><path stroke-linecap="round" stroke-linejoin="round" d="m43.25 6.75 7 7-7 7" class="stroke-shape" style="fill:none;stroke-width:4;stroke:#000;stroke-opacity:1"/></g></svg>