<svg width="56.5" xmlns="http://www.w3.org/2000/svg" height="46" viewBox="-2 -2 56.5 46" style="-webkit-print-color-adjust:exact" fill="none">
    <g class="feather feather-users" style="fill:#000">
        <path d="M29.75 36.75v-3.5a7 7 0 0 0-7-7h-14a7 7 0 0 0-7 7v3.5" style="fill:none" class="fills"/>
        <g class="strokes">
            <path d="M29.75 36.75v-3.5a7 7 0 0 0-7-7h-14a7 7 0 0 0-7 7v3.5" style="fill:none;stroke-width:4;stroke:#000;stroke-opacity:1" class="stroke-shape"/>
        </g>
        <circle cy="12.25" style="fill:none" cx="15.75" r="7" class="fills"/>
        <g class="strokes">
            <circle cx="15.75" cy="12.25" style="fill:none;stroke-width:4;stroke:#000;stroke-opacity:1" r="7" class="stroke-shape"/>
        </g>
        <path d="M40.25 36.75v-3.5A6.998 6.998 0 0 0 35 26.478" style="fill:none" class="fills"/>
        <g class="strokes">
            <path d="M40.25 36.75v-3.5A6.998 6.998 0 0 0 35 26.478" style="fill:none;stroke-width:4;stroke:#000;stroke-opacity:1" class="stroke-shape"/>
        </g>
        <path d="M28 5.477a7.002 7.002 0 0 1 0 13.563" style="fill:none" class="fills"/>
        <g class="strokes">
            <path d="M28 5.477a7.002 7.002 0 0 1 0 13.563" style="fill:none;stroke-width:4;stroke:#000;stroke-opacity:1" class="stroke-shape"/>
        </g>
    </g>
    <path d="M47 13.5v11" style="fill:none" class="fills"/>
    <g class="strokes">
        <path d="M47 13.5v11" style="fill:none;stroke-width:4;stroke:#000;stroke-opacity:1" class="stroke-shape"/>
    </g>
    <path d="M52.5 19h-11" style="fill:none" class="fills"/>
    <g class="strokes">
        <path d="M52.5 19h-11" style="fill:none;stroke-width:4;stroke:#000;stroke-opacity:1" class="stroke-shape"/>
    </g>
</svg>
