<?xml version="1.0" standalone="no"?>
<!DOCTYPE svg PUBLIC "-//W3C//DTD SVG 20010904//EN"
 "http://www.w3.org/TR/2001/REC-SVG-20010904/DTD/svg10.dtd">
<svg version="1.0" xmlns="http://www.w3.org/2000/svg"
 width="700.000000pt" height="700.000000pt" viewBox="0 0 700.000000 700.000000"
 preserveAspectRatio="xMidYMid meet">
<metadata>
Created by potrace 1.14, written by Peter Selinger 2001-2017
</metadata>
<g transform="translate(0.000000,700.000000) scale(0.100000,-0.100000)"
fill="#000000" stroke="none">
<path d="M3305 6993 c-367 -19 -785 -114 -1127 -254 -682 -280 -1259 -769
-1656 -1403 -73 -116 -190 -345 -252 -491 -122 -287 -212 -642 -252 -990 -16
-143 -16 -569 0 -710 81 -705 327 -1300 766 -1850 179 -225 511 -528 764 -698
933 -626 2096 -767 3155 -383 343 125 679 314 977 550 148 118 424 391 536
531 437 547 685 1147 766 1850 7 61 12 220 12 355 0 319 -26 543 -95 830 -191
784 -654 1483 -1304 1970 -657 492 -1465 737 -2290 693z m-490 -1823 c64 -31
134 -102 162 -162 12 -25 30 -90 39 -145 21 -130 47 -232 96 -383 35 -110 40
-133 35 -190 -9 -109 -34 -150 -178 -295 -71 -72 -129 -135 -129 -141 0 -17
109 -184 198 -304 111 -149 361 -399 512 -512 119 -89 286 -198 304 -198 6 0
69 58 141 129 155 155 190 174 310 175 66 1 96 -5 170 -31 115 -41 262 -78
390 -98 162 -26 247 -83 304 -205 l26 -55 3 -323 c3 -362 0 -389 -62 -476 -71
-100 -192 -154 -316 -142 -89 9 -284 43 -388 67 -678 158 -1326 545 -1778
1059 -411 469 -688 1038 -799 1645 -36 197 -42 308 -21 376 32 103 114 186
216 223 38 13 94 15 380 13 334 -2 335 -2 385 -27z"/>
</g>
</svg>
